<svg width="221" height="102" viewBox="12 1 221 102" fill="none" xmlns="http://www.w3.org/2000/svg">
<path d="M54.4285 2.0001H66.4285V89.1429C66.4285 92 65.2857 94.381 63 96.2857L59.5714 99.1429C57.2857 101.048 55 102 52.7142 102H26.7143C24.4286 102 22.1428 101.048 19.8571 99.1429L16.4286 96.2857C14.1429 94.381 13 92 13 89.1429V79.1429H25V86.1429C25 87.5714 25.0714 88.5 25.2143 88.9286C25.3571 89.3572 25.8571 89.9048 26.7143 90.5714C27.5714 91.2381 28.2381 91.6429 28.7143 91.7857C29.1905 91.9286 30.2857 92 32 92H47.4285C49.1428 92 50.2381 91.9286 50.7142 91.7857C51.1904 91.6429 51.8571 91.2381 52.7142 90.5714C53.5714 89.9048 54.0714 89.3572 54.2142 88.9286C54.3571 88.5 54.4285 87.5714 54.4285 86.1429V2.0001Z" fill="white"/>
<path d="M132 89.1429L140.571 96.2857L137.143 99.1429C135.428 100.571 134.262 101.405 133.643 101.643C133.024 101.881 131.857 102 130.143 102H91.9999C89.7142 102 87.4285 101.048 85.1428 99.1429L81.7142 96.2857C79.4285 94.381 78.2856 92 78.2856 89.1429V43.4286C78.2856 40.5715 79.4285 38.1905 81.7142 36.2858L85.1428 33.4286C87.4285 31.5239 89.7142 30.5715 91.9999 30.5715H125.286C127.19 30.5715 129.476 31.5239 132.143 33.4286L135.714 36.2858C138 38.0001 139.143 40.381 139.143 43.4286V72.7143H90.2856V86.1429C90.2856 87.5714 90.357 88.5 90.4999 88.9286C90.6428 89.3572 91.1428 89.9048 91.9999 90.5714C92.857 91.2381 93.5237 91.6429 93.9999 91.7857C94.4761 91.9286 95.5713 92 97.2856 92H125C126.714 92 127.881 91.881 128.5 91.6429C129.119 91.4048 130.286 90.5714 132 89.1429ZM127.143 63.4286V46.4286C127.143 45.0001 127.071 44.0715 126.928 43.6429C126.786 43.2143 126.286 42.6667 125.428 42.0001C124.571 41.3334 123.905 40.9286 123.428 40.7858C122.952 40.6429 121.857 40.5715 120.143 40.5715H97.2856C95.5713 40.5715 94.4761 40.6429 93.9999 40.7858C93.5237 40.9286 92.857 41.3334 91.9999 42.0001C91.1428 42.6667 90.6428 43.2143 90.4999 43.6429C90.357 44.0715 90.2856 45.0001 90.2856 46.4286V63.4286H127.143Z" fill="white"/>
<path d="M198.265 66.5587L165.004 30.5715H148.571L182.289 66.5587L148.571 102.001H165.004L198.265 66.5587Z" fill="white"/>
<path d="M208.625 30.5715H232.616L202.082 62.5601L190.295 49.9282L208.625 30.5715Z" fill="url(#paint0_linear_1_18)"/>
<path d="M232.616 102.001H208.625L190.295 82.9371L202.082 70.4966L232.616 102.001Z" fill="url(#paint1_linear_1_18)"/>
<defs>
<linearGradient id="paint0_linear_1_18" x1="141.285" y1="30.5715" x2="141.285" y2="102.001" gradientUnits="userSpaceOnUse">
<stop stop-color="#81A3F4"/>
<stop offset="1" stop-color="#7667F6"/>
</linearGradient>
<linearGradient id="paint1_linear_1_18" x1="141.285" y1="30.5715" x2="141.285" y2="102.001" gradientUnits="userSpaceOnUse">
<stop stop-color="#81A3F4"/>
<stop offset="1" stop-color="#7667F6"/>
</linearGradient>
</defs>
</svg>
